<svg xmlns="http://www.w3.org/2000/svg" version="1.1" width="35px" viewBox="0 0 10.775 9.117" enable-background="new 0 0 10.775 9.117" xml:space="preserve"><path fill="#2A7689" d="M9.133 0L8.899 0.224C8.731 0.392 8.563 0.562 8.4 0.735 7.791 1.377 7.177 2.091 6.526 2.916 5.96 3.634 5.38 4.419 4.805 5.249 4.653 5.466 4.507 5.68 4.358 5.898L4.329 5.9C4.298 5.943 4.255 5.974 4.198 5.974c-0.051 0-0.094-0.023-0.125-0.059L4.058 5.917C3.261 4.906 2.045 3.646 2.045 3.646L0 3.615C2.631 7.569 2.596 7.57 3.365 9.117h1.716C5.144 8.991 5.235 8.805 5.265 8.74l0.149-0.317 0.31-0.632c0.21-0.42 0.426-0.843 0.646-1.257 0.469-0.883 0.92-1.679 1.379-2.435C8.27 3.239 8.762 2.495 9.255 1.82c0.132-0.179 0.268-0.357 0.402-0.531l0.205-0.261 0.203-0.245c0.054-0.068 0.109-0.128 0.162-0.19l0.052-0.059c0.071-0.083 0.143-0.166 0.215-0.24C10.587 0.192 10.682 0.095 10.775 0H9.133z"/></svg>