<svg xmlns="http://www.w3.org/2000/svg" version="1.1" width="125px" height="100%" viewBox="0 0 33.271 22.313" enable-background="new 0 0 33.271 22.313" xml:space="preserve"><path class="cloud" d="M27.244 8.64c0.04-0.319 0.068-0.643 0.068-0.973C27.312 3.432 23.88 0 19.646 0c-3.069 0-6.047 2.208-7.047 5.208 -1.625-0.922-3.341-1.195-4.595-0.104 -0.012 0.01-0.019 0.022-0.031 0.033 -0.02 0.014-0.042 0.02-0.062 0.034 -1.236 0.875-1.686 2.49-1.336 4.123C6.543 9.292 6.51 9.292 6.51 9.292c-3.596 0-6.51 2.914-6.51 6.51 0 3.596 2.914 6.511 6.51 6.511h19.896c3.791 0 6.864-3.073 6.864-6.864C33.271 11.941 30.639 9.054 27.244 8.64z"/></svg>