<?xml version="1.0" standalone="no"?>
<!DOCTYPE svg PUBLIC "-//W3C//DTD SVG 20010904//EN"
 "http://www.w3.org/TR/2001/REC-SVG-20010904/DTD/svg10.dtd">
<svg version="1.0" xmlns="http://www.w3.org/2000/svg"
 width="165.000000pt" height="35.000000pt" viewBox="0 0 165.000000 35.000000"
 preserveAspectRatio="xMidYMid meet">

<g transform="translate(0.000000,35.000000) scale(0.100000,-0.100000)"
fill="#000000" stroke="none">
<path d="M30 190 l0 -150 800 0 800 0 0 150 0 150 -800 0 -800 0 0 -150z m322
23 l3 -108 29 -3 c16 -2 32 2 37 10 5 7 9 57 9 111 0 90 1 97 20 97 18 0 20
-8 22 -107 l3 -108 29 -3 c44 -5 51 10 51 116 0 84 2 97 18 100 15 3 17 -6 17
-75 1 -70 2 -76 14 -54 34 61 126 68 156 11 9 -17 4 -23 -49 -49 -54 -28 -71
-30 -71 -10 0 5 19 18 42 30 31 16 38 23 27 30 -8 5 -20 9 -26 9 -20 0 -53
-38 -53 -60 0 -26 34 -60 60 -60 13 0 28 12 38 30 12 21 22 28 35 24 17 -5 18
1 16 83 -2 73 1 89 14 91 13 3 16 -13 19 -98 2 -87 6 -104 22 -116 27 -19 42
-18 66 6 43 43 5 109 -54 94 -19 -4 -26 -2 -26 9 0 30 62 37 98 11 69 -48 34
-164 -49 -164 -41 0 -58 10 -75 43 l-16 30 -12 -24 c-30 -61 -121 -64 -156 -6
-12 18 -20 25 -20 16 0 -41 -66 -67 -112 -45 -28 14 -33 14 -48 1 -23 -21 -63
-19 -91 4 -22 17 -24 29 -29 126 -3 59 -3 109 -1 111 2 2 12 4 22 4 16 0 19
-12 21 -107z m838 87 c0 -15 -7 -20 -25 -20 -43 0 -84 -27 -93 -63 -17 -64 22
-117 85 -117 23 0 33 -5 33 -15 0 -11 -12 -15 -45 -15 -65 0 -106 38 -112 106
-3 37 1 57 15 80 35 55 142 88 142 44z m270 -4 c0 -9 -12 -16 -27 -18 -36 -4
-40 -41 -5 -46 12 -2 22 -8 22 -13 0 -6 10 -3 22 5 33 23 72 19 108 -11 l32
-26 -58 -33 c-54 -31 -74 -35 -74 -14 0 5 16 18 35 30 35 22 38 40 8 40 -26 0
-53 -31 -53 -61 0 -58 80 -76 100 -23 10 25 24 31 35 14 11 -18 -6 -50 -35
-65 -45 -23 -78 -19 -112 15 -27 27 -30 36 -25 70 4 35 2 40 -14 40 -17 0 -19
-8 -19 -65 l0 -65 -37 0 -38 0 -3 58 c-4 81 -49 110 -90 57 -36 -45 -6 -91 53
-82 27 4 35 2 35 -9 0 -19 -41 -34 -71 -27 -54 13 -81 70 -59 122 20 50 97 68
141 32 19 -15 25 -32 30 -83 5 -55 6 -50 7 43 1 66 6 109 14 117 17 17 78 16
78 -2z"/>
</g>
</svg>
